<?xml version="1.0" standalone="no"?>
<!DOCTYPE svg PUBLIC "-//W3C//DTD SVG 20010904//EN"
 "http://www.w3.org/TR/2001/REC-SVG-20010904/DTD/svg10.dtd">
<svg version="1.0" xmlns="http://www.w3.org/2000/svg"
 width="675.000000pt" height="675.000000pt" viewBox="0 0 675.000000 675.000000"
 preserveAspectRatio="xMidYMid meet">
<metadata>
Created by potrace 1.11, written by Peter Selinger 2001-2013
</metadata>
<g transform="translate(0.000000,675.000000) scale(0.100000,-0.100000)"
fill="#000000" stroke="none">
<path d="M3210 6736 c-14 -7 -77 -16 -143 -20 -176 -9 -415 -51 -577 -101 -25
-7 -62 -17 -83 -20 -20 -4 -39 -11 -42 -15 -3 -5 -23 -11 -45 -15 -22 -4 -42
-11 -46 -16 -3 -5 -12 -9 -21 -9 -8 0 -29 -6 -46 -14 -18 -8 -52 -21 -77 -31
-78 -29 -319 -144 -420 -201 -84 -46 -210 -129 -210 -136 0 -5 -5 -8 -11 -8
-13 0 -174 -120 -289 -216 -104 -87 -326 -309 -383 -384 -23 -30 -49 -61 -57
-70 -31 -31 -160 -209 -160 -219 0 -6 -3 -11 -8 -11 -4 0 -16 -17 -27 -37 -11
-20 -25 -42 -31 -48 -6 -6 -30 -45 -53 -88 -24 -42 -47 -79 -52 -83 -5 -3 -9
-14 -9 -24 0 -10 -4 -20 -8 -22 -8 -3 -54 -93 -110 -218 -88 -196 -169 -446
-207 -640 -48 -244 -55 -297 -62 -461 -3 -82 -10 -149 -15 -149 -5 0 -3 -7 6
-15 13 -13 84 -15 548 -13 l533 3 21 165 c26 196 37 258 59 331 9 29 21 72 27
94 23 81 92 257 120 305 4 8 11 22 14 30 3 8 10 22 15 30 5 8 12 22 16 30 4 8
26 48 50 88 24 41 43 75 43 78 0 2 6 12 14 21 8 10 50 65 92 123 124 167 310
347 493 474 31 22 58 43 59 48 2 4 8 8 14 8 5 0 29 14 53 30 24 17 48 30 54
30 5 0 16 6 23 13 15 14 156 84 243 120 115 48 257 91 410 125 221 50 607 55
835 11 25 -5 72 -14 105 -20 33 -6 65 -15 70 -19 6 -4 26 -11 45 -15 134 -27
440 -160 568 -246 24 -16 45 -29 47 -29 4 0 107 -72 140 -98 126 -98 295 -257
295 -278 0 -6 -114 -126 -252 -265 l-253 -254 854 -3 c470 -1 859 2 863 6 4 4
7 393 6 863 l-3 854 -204 -203 c-111 -111 -211 -204 -221 -205 -11 -1 -50 29
-96 73 -68 65 -113 105 -264 234 -14 11 -38 30 -55 40 -16 11 -36 26 -43 33
-37 36 -313 211 -422 266 -30 16 -62 32 -70 37 -27 16 -189 90 -197 90 -5 0
-21 7 -38 16 -16 9 -57 25 -90 36 -33 10 -69 24 -80 28 -152 69 -645 169 -840
170 -33 1 -71 7 -85 15 -34 19 -294 20 -330 1z"/>
<path d="M2868 4243 c-50 -57 -48 -25 -48 -886 l0 -804 26 -27 c48 -48 110
-30 339 100 33 18 69 38 80 44 11 6 47 26 80 45 33 18 83 46 110 60 28 14 64
35 80 45 17 10 53 31 80 45 28 14 66 35 85 47 19 11 57 32 83 47 26 14 74 41
105 58 31 18 66 37 77 43 11 6 47 26 80 45 33 18 83 46 110 60 28 14 64 35 80
45 17 11 44 26 60 34 17 8 53 29 80 46 28 16 58 33 68 36 10 4 24 19 33 35 13
25 13 33 0 57 -8 15 -34 38 -58 50 -23 13 -56 32 -73 42 -16 10 -52 31 -80 45
-27 14 -77 42 -110 60 -33 19 -69 39 -80 45 -11 6 -47 26 -80 45 -33 18 -82
46 -110 60 -27 14 -63 35 -80 46 -16 10 -42 24 -57 30 -16 6 -28 15 -28 20 0
5 -9 9 -19 9 -11 0 -22 4 -26 9 -3 6 -27 20 -53 33 -26 13 -49 26 -52 29 -6 7
-53 32 -90 49 -13 6 -27 14 -30 18 -3 4 -36 23 -75 42 -38 19 -72 38 -75 41
-6 7 -53 32 -90 49 -13 6 -27 14 -30 18 -3 4 -47 28 -98 55 -76 39 -102 47
-146 47 -38 0 -57 -5 -68 -17z"/>
<path d="M5610 3232 c0 -55 -7 -123 -15 -155 -8 -32 -15 -73 -15 -91 0 -19 -6
-56 -14 -82 -8 -27 -22 -78 -31 -114 -9 -36 -23 -80 -31 -98 -8 -18 -14 -39
-14 -46 0 -27 -134 -317 -181 -391 -10 -16 -22 -37 -26 -45 -10 -23 -47 -75
-55 -78 -5 -2 -8 -8 -8 -13 0 -13 -72 -109 -82 -109 -4 0 -8 -4 -8 -9 0 -15
-49 -70 -170 -191 -105 -106 -196 -190 -205 -190 -2 0 -19 -14 -37 -30 -18
-16 -38 -30 -46 -30 -7 0 -15 -6 -18 -14 -3 -8 -13 -17 -22 -20 -9 -4 -26 -12
-37 -19 -19 -12 -74 -46 -120 -74 -50 -31 -158 -83 -171 -83 -8 0 -14 -4 -14
-10 0 -5 -12 -13 -27 -16 -16 -4 -37 -13 -48 -20 -11 -8 -27 -14 -36 -14 -10
0 -30 -6 -46 -14 -43 -21 -94 -38 -133 -43 -19 -3 -40 -10 -47 -15 -7 -5 -36
-14 -65 -18 -29 -5 -75 -14 -103 -19 -155 -32 -252 -41 -416 -40 -96 0 -199 5
-229 10 -30 5 -90 13 -132 18 -42 5 -86 14 -97 20 -11 6 -32 11 -48 11 -15 0
-45 6 -68 14 -22 7 -67 21 -100 31 -59 17 -102 34 -158 61 -16 8 -34 14 -40
14 -9 0 -84 37 -245 119 -15 8 -29 17 -32 20 -7 9 -42 30 -67 41 -13 5 -23 14
-23 20 0 5 -5 10 -10 10 -9 0 -66 36 -80 50 -3 3 -36 30 -75 60 -38 29 -87 71
-107 92 -21 21 -42 38 -48 38 -5 0 -10 6 -10 13 -1 6 -14 23 -30 37 -17 13
-30 33 -30 45 0 14 84 104 250 270 137 137 250 253 250 257 0 4 -396 8 -880 8
l-880 0 0 -880 c0 -484 3 -880 8 -880 4 0 102 95 218 210 156 157 215 209 227
204 9 -3 52 -40 94 -82 43 -41 105 -98 138 -125 33 -27 62 -53 65 -57 8 -11
249 -190 256 -190 3 0 23 -13 43 -28 20 -16 43 -32 51 -35 8 -4 29 -16 45 -27
17 -11 39 -24 50 -30 11 -6 47 -26 80 -45 33 -18 80 -44 105 -56 25 -12 52
-25 60 -30 8 -5 22 -12 30 -15 8 -3 42 -19 75 -35 33 -16 66 -29 72 -29 6 0
24 -6 40 -14 55 -28 104 -46 121 -46 10 0 26 -6 37 -14 11 -7 34 -16 50 -18
17 -3 44 -10 60 -16 29 -11 95 -29 185 -52 25 -6 70 -15 100 -20 30 -4 68 -13
83 -19 16 -6 47 -11 70 -11 23 0 74 -7 112 -16 56 -12 141 -15 415 -16 220 0
361 4 386 11 23 6 79 15 125 21 101 12 178 27 239 46 25 8 57 14 71 14 15 0
40 7 55 15 16 8 39 15 51 15 12 0 37 6 55 14 41 17 93 35 133 46 53 15 120 41
130 51 5 5 17 9 26 9 10 0 30 7 46 14 15 8 89 45 163 81 158 78 244 125 248
137 2 4 8 8 14 8 6 0 30 14 55 30 24 17 46 30 49 30 3 0 31 19 62 43 31 24 65
46 75 50 9 3 17 11 17 17 0 5 7 10 15 10 8 0 15 4 15 8 0 5 28 29 63 54 110
82 317 277 433 409 70 80 200 245 220 278 10 17 22 31 26 31 4 0 8 5 8 10 0 9
35 65 50 80 7 7 28 41 40 65 6 11 19 34 30 50 10 17 30 53 45 80 25 48 34 66
55 103 6 9 13 24 16 32 3 8 10 22 15 30 5 8 12 22 15 30 3 8 19 42 35 75 16
33 29 66 29 72 0 6 6 24 14 40 34 69 63 148 77 208 6 22 14 44 20 50 5 5 9 20
9 35 1 14 7 36 15 50 8 14 14 38 15 54 0 15 6 49 14 75 37 117 64 291 77 491
5 85 14 167 18 181 6 18 5 31 -2 38 -8 8 -174 11 -569 11 l-558 0 0 -98z"/>
</g>
</svg>
